<svg viewBox="0 0 20 18" xmlns="http://www.w3.org/2000/svg" xmlns:xlink="http://www.w3.org/1999/xlink" fill="#fff">
    <path d="M 18.2237 3.48 L 13.1736 3.48 L 13.1736 4.9596 L 18.2237 4.9596 L 18.2237 3.48 L 18.2237 3.48 ZM 14.3431 8.1303 C 14.0241 8.4473 13.8115 8.9229 13.7583 9.4514 L 17.6921 9.4514 C 17.639 8.8701 17.4263 8.3945 17.1074 8.0774 C 16.7352 7.7604 16.31 7.6018 15.7252 7.6018 C 15.1405 7.6547 14.662 7.8132 14.3431 8.1303 L 14.3431 8.1303 ZM 17.7453 6.175 C 18.33 6.4393 18.8616 6.862 19.2337 7.4433 C 19.6059 7.9717 19.8185 8.553 19.9248 9.24 C 19.978 9.6628 20.0311 10.1912 19.978 10.9839 L 13.5988 10.9839 C 13.652 11.8822 13.9178 12.4635 14.5025 12.8334 C 14.8747 13.0448 15.2468 13.1505 15.7784 13.1505 C 16.31 13.1505 16.7352 12.9919 17.0542 12.7277 C 17.2137 12.5692 17.3732 12.4106 17.5326 12.1464 L 19.8717 12.1464 C 19.8185 12.6749 19.5527 13.2033 19.0211 13.7317 C 18.2237 14.5772 17.1605 15 15.7252 15 C 14.5557 15 13.5457 14.6301 12.642 13.9431 C 11.7382 13.2033 11.313 12.0936 11.313 10.4554 C 11.313 8.9229 11.7382 7.8132 12.5356 6.9677 C 13.333 6.175 14.3962 5.7523 15.6721 5.7523 C 16.4694 5.8051 17.1605 5.9108 17.7453 6.175 L 17.7453 6.175 ZM 3.2859 9.5042 L 3.2859 12.622 L 6.1565 12.622 C 6.6881 12.622 7.0602 12.5692 7.3791 12.4106 C 7.9107 12.1464 8.1765 11.6708 8.1765 10.931 C 8.1765 10.2969 7.9107 9.8741 7.4323 9.6628 C 7.1665 9.5571 6.7412 9.4514 6.2628 9.4514 L 3.2859 9.4514 L 3.2859 9.5042 L 3.2859 9.5042 ZM 3.2859 5.0125 L 3.2859 7.6018 L 6.1565 7.6018 C 6.6881 7.6018 7.0602 7.4962 7.4323 7.2848 C 7.7513 7.0734 7.9107 6.7563 7.9107 6.2279 C 7.9107 5.6995 7.6981 5.3295 7.2728 5.1182 C 6.9007 5.0125 6.4223 4.9596 5.8907 4.9596 L 3.2859 4.9596 L 3.2859 5.0125 L 3.2859 5.0125 ZM 9.7182 4.2198 C 10.0903 4.6954 10.2498 5.3295 10.2498 6.0165 C 10.2498 6.7563 10.0903 7.3376 9.7182 7.7604 C 9.5055 8.0246 9.1866 8.236 8.8145 8.4473 C 9.3992 8.6587 9.8777 9.0286 10.1966 9.5042 C 10.5156 9.9798 10.675 10.5611 10.675 11.2481 C 10.675 11.9351 10.5156 12.5692 10.1434 13.0976 C 9.9308 13.4675 9.665 13.7846 9.2929 14.0488 C 8.9208 14.313 8.4955 14.5244 7.9639 14.6301 C 7.4323 14.7358 6.9007 14.7886 6.316 14.7886 L 1 14.7886 L 1 3.0044 L 6.7412 3.0044 C 8.0702 2.9516 9.0803 3.3743 9.7182 4.2198 L 9.7182 4.2198 Z" />
</svg>
