<svg viewBox="0 0 16 16" xmlns="http://www.w3.org/2000/svg" fill="#000">
    <path fill-rule="evenodd" clip-rule="evenodd" d="M10.1558 9.2225C10.2111 9.24923 10.2802 9.26259 10.3355 9.28932C10.3631 9.20914 10.3769 9.12896 10.3907 9.03542C10.3078 9.03542 10.2111 9.03542 10.1282 9.03542C10.142 9.10224 10.142 9.16905 10.1558 9.2225ZM7.3512 2.46079C7.68279 2.54097 8.1249 2.63451 8.44266 2.63451C7.86239 1.85946 6.90909 1.68574 6.03869 1.91291C6.61896 2.03318 7.03344 2.23362 7.3512 2.46079ZM8.8157 2.5677C8.94004 2.50088 9.05057 2.39398 9.14728 2.27371C8.95386 2.15344 8.71898 2.03318 8.40122 1.93964C8.37358 1.97972 8.34595 2.00645 8.33214 2.03318C8.53938 2.2069 8.70517 2.39398 8.8157 2.5677ZM9.29925 2.03318C9.39597 1.83273 9.45123 1.67237 9.45123 1.67237C9.45123 1.68574 9.4236 1.85946 9.32689 2.0599C9.50649 2.18017 9.64465 2.30044 9.74137 2.42071C9.89334 2.27371 10.1558 1.96636 10.1697 1.60556C10.1835 1.11113 9.79663 1.07104 9.79663 1.07104C9.769 1.07104 9.74137 1.04431 9.74137 1.00422C9.74137 0.964132 9.769 0.950769 9.81044 0.950769C9.81044 0.950769 10.3078 1.00422 10.2802 1.5922C10.2664 1.99309 9.97624 2.32716 9.81044 2.48752C9.85189 2.54097 9.89334 2.59443 9.92097 2.63451L10.5841 2.16681C10.9572 1.64565 10.9295 1.09776 10.9295 1.09776C10.9295 1.07104 10.9572 1.04431 10.9848 1.04431C11.0124 1.04431 11.0401 1.07104 11.0401 1.09776C11.0401 1.09776 11.0539 1.52538 10.8052 1.99309L12.9881 0.496425L10.0868 2.99532C10.1558 3.19576 10.1697 3.36948 10.1558 3.5432L10.1973 3.55657C10.8881 3.11558 11.6756 2.8216 11.6756 2.8216C11.6756 2.8216 11.1368 3.26258 10.5151 3.6902C10.6532 3.74365 10.7914 3.81046 10.9434 3.89064C11.0953 3.81046 11.344 3.67683 11.6203 3.59665C11.8276 3.35612 11.9796 3.26258 11.9796 3.26258C12.0072 3.24922 12.0348 3.26258 12.0486 3.27594C12.0624 3.30267 12.0486 3.32939 12.0348 3.34276C12.0348 3.34276 11.9381 3.39621 11.7861 3.55657C11.869 3.5432 11.9381 3.52984 12.021 3.51648C12.1868 3.50311 12.3111 3.51648 12.394 3.55657C12.4631 3.46302 12.5322 3.36948 12.5875 3.27594C12.8223 2.78151 12.4355 2.99532 12.4355 2.99532C12.4078 3.00868 12.3802 2.99532 12.3664 2.98195C12.3526 2.95523 12.3664 2.9285 12.3802 2.91514C12.3802 2.91514 13.0158 2.5677 12.6704 3.30267C12.6151 3.40957 12.5598 3.50311 12.4769 3.59665C12.6704 3.71692 12.6842 3.91737 12.6842 3.91737C12.6842 3.94409 12.6704 3.97082 12.6289 3.98418C12.6013 3.98418 12.5736 3.97082 12.5598 3.93073C12.5598 3.93073 12.546 3.77037 12.3802 3.67683C12.1315 3.94409 11.7999 4.1579 11.6065 4.27817C11.9657 4.51871 12.3111 4.82606 12.5598 5.20022C12.9467 4.89287 13.2921 4.81269 13.3888 5.34722V5.3873C13.4164 5.34722 13.444 5.30713 13.4717 5.26704C13.5408 5.16013 13.6098 5.09332 13.6789 5.05323C13.6927 5.0265 13.6927 4.99978 13.6927 4.99978C13.7065 4.97305 13.7204 4.95969 13.748 4.97305C13.7618 4.97305 13.7756 4.98641 13.7756 4.99978C14.0519 4.9196 14.2316 5.29376 14.2316 5.29376C14.2454 5.32049 14.2316 5.34722 14.2039 5.34722C14.1763 5.36058 14.1487 5.34722 14.1487 5.32049C14.1487 5.32049 13.9967 4.98641 13.748 5.10668C13.7065 5.22695 13.596 5.46748 13.4302 5.72138C13.4579 6.0421 13.444 6.5098 13.2921 6.95078L13.3197 6.96415C13.2921 7.00424 13.2644 7.04432 13.2368 7.08441C13.1677 7.23141 13.0848 7.36504 12.9743 7.49867C12.4769 8.07328 11.8967 8.22027 11.6065 8.26036C11.6342 8.42072 11.6342 8.59444 11.6065 8.80825C11.9381 8.80825 12.2835 8.79489 12.6151 8.78152C13.1677 8.76816 13.6927 8.72807 14.0934 8.67462C14.3559 8.63453 14.4941 8.59444 14.5631 8.54099C14.4802 8.54099 14.1072 8.52763 14.3559 8.38063C14.4802 8.31382 14.6046 8.30045 14.7013 8.34054C14.7704 8.36727 14.8118 8.40736 14.8256 8.47417C14.8395 8.54099 14.8256 8.59444 14.7704 8.66126C14.6875 8.7548 14.4941 8.83498 14.121 8.88843C13.7204 8.94188 13.1954 8.96861 12.6289 8.99533C12.2697 9.0087 11.9105 9.00869 11.5513 9.02206C11.4822 9.23587 11.3855 9.40959 11.2749 9.55658C11.8138 9.69021 12.4493 9.78375 13.1125 9.78375C15.0467 9.78375 16 9.44968 16 9.44968C16 9.44968 14.8533 10.0109 13.4164 10.0644C13.375 10.2114 13.2368 10.4385 12.7947 10.4385C12.3388 10.4385 11.717 10.1446 11.3855 9.97083C11.6756 10.3584 11.7032 10.8929 11.7032 10.9062C11.7032 10.933 11.6756 10.9597 11.648 10.9597C11.6203 10.9597 11.5927 10.933 11.5927 10.9062C11.5927 10.9062 11.5374 10.1713 11.1091 9.8372L11.0124 9.82384C10.8466 9.97084 10.6809 10.0644 10.5565 10.1312L11.9243 11.708L11.7999 11.8149L10.4598 10.3049C10.4322 10.3316 10.4045 10.3584 10.3631 10.3851C10.2664 10.5722 10.1144 10.8127 9.85189 11.0933C10.0453 11.1334 10.3493 11.2403 10.598 11.5477C11.0263 12.0555 10.4874 12.4965 10.4874 12.4965L10.446 12.4564C10.446 12.4564 10.8743 12.0421 10.5151 11.6279C10.2526 11.3071 9.92097 11.227 9.769 11.2002C9.65847 11.3205 9.52031 11.4274 9.38215 11.5477C9.50649 11.7214 9.63084 11.9218 9.69992 12.1089C9.75518 12.2559 9.79663 12.4296 9.78281 12.59C9.769 13.178 9.21636 13.3651 8.67754 13.3517C8.52556 13.3517 8.37358 13.325 8.22161 13.2849C8.29069 13.6056 8.33214 14.0065 8.29069 14.4742C8.15253 16.0778 6.7433 15.9708 6.72948 15.9708C6.72948 15.9708 8.05582 15.8773 8.16634 14.4608C8.20779 13.9798 8.15253 13.5789 8.05582 13.2448C7.82095 13.1646 7.57226 13.0443 7.3512 12.9241C7.25449 13.0844 7.0887 13.1913 6.8262 13.1913C6.77093 13.1913 6.71567 13.178 6.6604 13.1646C6.53606 13.1913 6.3979 13.178 6.23211 13.0711C6.10777 12.9909 6.01105 12.8973 5.92816 12.8038C5.7071 13.1245 5.45842 13.4586 5.22354 13.7793C5.1821 14.5009 5.11302 15.1958 5.00249 15.7437C4.8367 16.5588 4.68472 17.1334 4.22879 16.9731C4.4913 17.0265 4.69854 16.5321 4.8367 15.8506C4.94722 15.3294 5.0163 14.6746 5.05775 13.9931C4.71235 14.4475 4.35314 14.9018 3.99392 15.2893C3.73142 15.5833 3.41365 15.904 3.12352 15.9976C3.74523 15.423 4.43603 14.6078 5.07157 13.7392C5.08538 13.4185 5.0992 13.0844 5.11302 12.7637C4.4913 13.5655 3.81431 14.3673 3.22023 14.9553C0.926777 17.0265 2.5018 14.3005 2.59851 14.4074C2.59851 14.4074 1.60376 16.2247 3.08207 14.7815C3.7176 14.1535 4.43603 13.3116 5.11302 12.4697V12.4029C4.96104 12.3762 4.79525 12.3361 4.64327 12.2826C4.57419 12.3495 4.51893 12.4296 4.44985 12.4831C4.28406 13.2314 3.8005 13.7793 3.78668 13.7793C3.75905 13.806 3.73142 13.806 3.70379 13.7793C3.67616 13.7526 3.67616 13.7259 3.70379 13.6991C3.70379 13.6991 4.10445 13.2581 4.28406 12.6434C4.21498 12.7103 4.15971 12.7771 4.10445 12.8305C3.49655 13.6457 3.26168 13.3651 3.16496 13.2849C3.15115 13.2581 3.15115 13.2314 3.16496 13.2047C3.1926 13.1913 3.22023 13.1913 3.24786 13.2047C3.24786 13.2047 3.38602 13.3784 4.00774 12.7504C4.10445 12.6568 4.21498 12.5365 4.32551 12.4163C4.33932 12.3361 4.35314 12.2559 4.35314 12.1624H4.33932C4.13208 12.296 3.84195 12.3895 3.42747 12.3495C3.3722 12.3495 3.31694 12.3361 3.27549 12.3361C3.16496 12.4965 3.01299 12.6034 2.83338 12.6702C2.63996 12.7504 2.40509 12.7637 2.18403 12.7103C1.96297 12.6702 1.74192 12.5633 1.57613 12.3895C1.36889 12.1891 1.21691 11.9085 1.17546 11.5477C1.06494 10.7993 1.4656 10.3851 1.82482 10.1579C1.75574 9.99756 1.7281 9.87729 1.71429 9.85057C1.64521 9.79712 1.58994 9.74366 1.52086 9.69021L1.49323 9.70357C1.49323 9.70357 1.49323 9.69021 1.47942 9.66349C1.42415 9.61003 1.36889 9.56994 1.31362 9.51649L1.29981 9.50313C0.982041 9.20914 0.719538 8.88843 0.650458 8.55435C0.53993 8.07328 0.802433 7.65903 1.10638 7.3784L1.09257 7.36504C1.17546 7.28486 1.27218 7.20468 1.35507 7.13787C1.39652 6.89733 1.4656 6.68352 1.5485 6.49644C1.50705 6.24254 1.49323 5.97528 1.50705 5.70802C1.50705 5.58775 1.52086 5.45412 1.53468 5.33385C1.42415 5.36058 1.31362 5.40067 1.2031 5.44076C1.06494 5.50757 0.954409 5.57439 0.857697 5.6412C0.67809 5.7882 0.595194 5.94855 0.567562 6.09555C0.567562 6.12227 0.553746 6.149 0.553746 6.17573C0.60901 6.18909 0.664274 6.20245 0.719538 6.21582C0.982041 6.29599 1.23073 6.44299 1.28599 6.63007C1.31362 6.73697 1.29981 6.83052 1.27218 6.89733C1.24454 6.95078 1.18928 6.99087 1.13402 7.0176C1.07875 7.04432 1.02349 7.04432 0.954409 7.03096C0.843881 7.0176 0.733353 6.95078 0.622826 6.83052C0.47085 6.83052 -0.0265248 6.80379 0.00110714 6.41626C0.00110714 6.32272 0.056371 6.24254 0.139267 6.20245C0.208347 6.16236 0.291243 6.149 0.387954 6.149C0.387954 6.12227 0.387954 6.08218 0.40177 6.05546C0.443218 5.86838 0.553746 5.66793 0.760985 5.49421C0.857697 5.41403 0.995857 5.33385 1.14783 5.26704C1.29981 5.20022 1.45178 5.16013 1.58994 5.13341C1.68666 4.69243 1.86626 4.26481 2.19785 3.89064C1.97679 3.6902 1.64521 3.42294 1.16165 3.14231C1.78337 3.20913 2.18403 3.4363 2.43272 3.65011C2.65377 3.46302 2.88864 3.34276 3.13733 3.26258C3.22023 3.20913 3.28931 3.16904 3.3722 3.14231C3.1926 2.87505 2.7643 2.43407 1.85245 1.96636C2.99917 2.22026 3.49655 2.71469 3.70379 3.02204C3.70379 3.02204 3.7176 3.00868 3.73142 2.99532H3.74523L3.75905 2.98195C3.81431 2.9285 3.86958 2.86169 3.93866 2.78151C3.73142 2.48752 3.33076 2.0599 2.59851 1.56547C3.4551 1.79264 3.93866 2.2069 4.20116 2.54097C5.04394 1.81937 6.09395 1.43184 7.1716 1.45856C7.6966 1.47193 8.1249 1.53874 8.4703 1.63228C8.74662 1.27148 9.13346 0.696871 8.98149 0.376157C8.88478 0.175711 8.70517 0.0688066 8.49793 0.0821697C8.3045 0.0821697 8.08345 0.148985 7.86239 0.242526C7.66897 0.336068 7.47555 0.456335 7.30975 0.603329C7.14396 0.763686 7.10252 0.897316 7.13015 1.00422C7.14396 1.05767 7.1716 1.09776 7.21304 1.12449C7.25449 1.15121 7.30975 1.17794 7.36502 1.1913C7.89003 1.27148 7.64134 0.643418 7.50318 0.897316C7.48936 0.937406 7.44791 0.950769 7.40647 0.937406C6.97817 0.817138 8.20779 0.496425 7.7795 1.12449C7.66897 1.28485 7.50318 1.32493 7.3512 1.29821C7.28212 1.28485 7.21304 1.25812 7.15778 1.21803C7.0887 1.20467 7.03344 1.15121 7.01962 1.07104C6.97817 0.937406 7.01962 0.750323 7.22686 0.56324C7.39265 0.402883 7.58607 0.269253 7.80713 0.175711C8.042 0.0688066 8.27687 0.00199129 8.48411 0.00199129C8.70517 -0.0113718 8.89859 0.0420805 9.02293 0.175711C9.06438 0.2158 9.09201 0.255889 9.11965 0.309342C9.28544 0.656781 8.89859 1.28485 8.58082 1.6991C8.87096 1.79264 9.10583 1.91291 9.29925 2.03318ZM9.18873 2.30044C9.09201 2.43407 8.9953 2.5677 8.85714 2.64788C8.88478 2.68797 8.89859 2.72806 8.92622 2.76815C9.05057 2.8216 9.18873 2.88841 9.29925 2.95523C9.35452 2.98195 9.40978 3.02204 9.45123 3.04877L9.6861 2.83496C9.63084 2.71469 9.47886 2.51425 9.18873 2.30044ZM8.02818 2.68797C7.84858 2.66124 7.66897 2.62115 7.50318 2.59443C7.57226 2.64788 7.62752 2.71469 7.68279 2.76815C7.71042 2.76815 7.91766 2.70133 8.02818 2.68797ZM8.69135 11.2671H8.7328L8.71898 11.2537L8.69135 11.2671ZM8.84333 11.2671C8.87096 11.2671 8.88478 11.2671 8.91241 11.2671C8.89859 11.2403 8.87096 11.2136 8.85714 11.1869C8.84333 11.2002 8.81569 11.2136 8.80188 11.227C8.81569 11.227 8.82951 11.2537 8.84333 11.2671ZM9.00912 11.2537H9.02293C8.98149 11.2002 8.95385 11.1601 8.92622 11.1334C8.95385 11.1735 8.98149 11.2136 9.00912 11.2537ZM9.11965 11.227C9.23017 11.2002 9.3407 11.1468 9.43741 11.08C9.50649 11.0399 9.56176 10.9998 9.60321 10.9463C9.65847 10.8795 9.71373 10.7993 9.769 10.7325C9.72755 10.7459 9.67229 10.7593 9.63084 10.7726L9.57557 10.786L9.54794 10.7993C9.39597 10.933 9.20254 11.0265 8.9953 11.08C9.03675 11.1201 9.0782 11.1601 9.11965 11.227ZM9.02293 11.4675H8.9953L9.02293 11.5076L9.03675 11.4942L9.02293 11.4675ZM8.88478 11.4809C8.59464 11.5076 8.31832 11.4675 8.11108 11.414C7.90384 11.4274 7.6966 11.414 7.50318 11.374C7.32357 11.414 7.11633 11.4541 6.92291 11.4942C7.19923 11.7481 7.83476 12.2426 8.77425 11.6679C8.82951 11.6279 8.88478 11.5878 8.94004 11.561C8.92622 11.5477 8.91241 11.5076 8.88478 11.4809ZM1.45178 9.12896C1.45178 9.1156 1.4656 9.08887 1.4656 9.07551C1.49323 9.00869 1.53468 8.95524 1.57613 8.91515C1.50705 8.71471 1.45178 8.51426 1.41034 8.30045C1.36889 8.11337 1.34126 7.95301 1.32744 7.77929C1.25836 8.11337 1.21691 8.59444 1.3827 8.99533C1.39652 9.03542 1.42415 9.08887 1.45178 9.12896ZM1.67284 9.18241C1.64521 9.24923 1.64521 9.32941 1.64521 9.40959C1.71429 9.48977 1.78337 9.55658 1.85245 9.61003C1.82482 9.54322 1.78337 9.46304 1.75574 9.39622H1.7281C1.7281 9.39622 1.71429 9.35613 1.71429 9.30268C1.70047 9.26259 1.68666 9.2225 1.67284 9.18241ZM4.57419 3.91737C4.58801 3.94409 4.61564 3.95746 4.64327 3.97082C4.78143 4.01091 4.89196 3.93073 4.89196 3.93073C4.89196 3.93073 4.89196 4.09109 4.7538 4.10445C4.69854 4.11781 4.62946 4.10445 4.57419 4.09109C4.57419 4.13118 4.58801 4.18463 4.60182 4.21136C4.72617 4.19799 4.8367 4.19799 4.91959 4.19799C4.93341 4.07773 4.96104 3.95746 4.97486 3.83719C4.86433 3.78374 4.7538 3.73029 4.64327 3.6902C4.60182 3.77037 4.58801 3.85055 4.57419 3.91737ZM3.78668 4.11781C3.78668 4.11781 3.73142 3.90401 3.7176 3.48975H3.70379C3.39984 3.83719 3.3722 4.27817 3.38602 4.54543C3.41365 4.53207 3.44128 4.51871 3.46892 4.50534C3.63471 4.42516 3.8005 4.35835 3.96629 4.31826C3.88339 4.14454 3.82813 3.90401 3.89721 3.5432C3.86958 3.58329 3.84195 3.62338 3.82813 3.67683C3.75905 3.85055 3.78668 4.11781 3.78668 4.11781ZM4.62946 3.27594C4.69854 3.19576 4.78143 3.11558 4.86433 3.02204C4.61564 3.00868 4.4913 3.06213 4.28406 3.14231C4.32551 3.15567 4.36695 3.16904 4.4084 3.1824C4.4913 3.20913 4.56038 3.23585 4.62946 3.27594ZM5.04394 3.1824C4.96104 3.26258 4.89196 3.32939 4.8367 3.39621C4.89196 3.4363 4.96104 3.47639 5.0163 3.51648C5.03012 3.40957 5.03012 3.30267 5.04394 3.20913V3.1824ZM8.62227 2.91514C8.55319 2.90178 8.4703 2.90178 8.3874 2.90178C8.48411 2.9285 8.58082 2.96859 8.66372 3.00868C8.6499 2.96859 8.63609 2.94186 8.62227 2.91514ZM8.51174 3.78374C8.52556 3.66347 8.52556 3.51648 8.52556 3.38285C8.40122 3.36948 8.24924 3.35612 8.05582 3.35612C8.13871 3.56993 8.18016 3.75701 8.20779 3.91737C8.3045 3.87728 8.40122 3.83719 8.51174 3.78374ZM9.3407 10.8261C9.31307 10.8261 9.29925 10.8261 9.27162 10.8394C9.24399 10.8662 9.23017 10.8795 9.20254 10.9062C9.24399 10.8795 9.28544 10.8528 9.3407 10.8261ZM9.92097 10.1713C10.0039 10.1178 10.0729 10.051 10.1144 10.0109C10.1558 9.87729 10.1835 9.75703 10.1835 9.66349L10.142 9.65012C10.1006 9.7303 10.0315 9.86393 9.93479 10.0109C9.9486 10.0644 9.93479 10.1178 9.92097 10.1713ZM7.19923 12.3094C7.18541 12.3895 7.15778 12.4831 7.11633 12.59C7.17159 12.6301 7.22686 12.6702 7.28212 12.6969C7.33739 12.5633 7.33739 12.4029 7.33739 12.3094C7.29594 12.3094 7.24067 12.3094 7.19923 12.3094ZM7.06107 12.7236C7.0058 12.8305 6.95054 12.9374 6.86764 13.0176C7.03344 13.0176 7.14396 12.9374 7.21304 12.8305C7.15778 12.7904 7.11633 12.7637 7.06107 12.7236ZM5.85908 12.6702C5.81763 12.6034 5.77618 12.5499 5.74855 12.4965C5.65184 12.4831 5.51368 12.4697 5.37552 12.443L5.27881 12.5633C5.27881 12.8706 5.26499 13.2047 5.25117 13.512C5.45841 13.2314 5.65184 12.9508 5.85908 12.6702ZM5.65184 12.296C5.63802 12.2693 5.62421 12.2292 5.61039 12.2025C5.58276 12.2025 5.55513 12.2158 5.54131 12.2158L5.49986 12.2826C5.54131 12.2826 5.59657 12.296 5.65184 12.296ZM4.46367 11.8149C4.4084 11.8684 4.35314 11.9085 4.31169 11.9486L4.32551 11.9619C4.36695 11.9085 4.42222 11.855 4.46367 11.8149ZM3.89721 11.6813C3.99392 11.6679 4.09063 11.6279 4.17353 11.5343C4.21498 11.4809 4.25643 11.4408 4.28406 11.4007C4.063 11.3071 3.85576 11.1869 3.67616 11.0532C3.59326 11.1334 3.52418 11.227 3.44128 11.3205C3.60708 11.4675 3.75905 11.5878 3.89721 11.6813ZM3.15115 11.6813L3.1097 11.7348C3.01299 11.855 2.91628 11.9486 2.83338 12.0287C3.01299 12.1089 3.22023 12.1624 3.4551 12.1757C3.74523 12.2025 3.98011 12.149 4.1459 12.0688C4.13208 12.0555 4.10445 12.0421 4.09063 12.0421C3.67616 11.9352 3.49655 11.8684 3.15115 11.6813ZM1.0373 8.48754C1.02349 8.15346 1.06494 7.84611 1.1202 7.61894C1.02349 7.80602 0.995857 8.08664 1.02349 8.38063C1.0373 8.42072 1.0373 8.46081 1.0373 8.48754ZM6.49461 2.52761C6.09395 2.48752 5.74855 2.6746 5.52749 2.8216C5.55513 2.83496 5.59657 2.84832 5.62421 2.86169C5.79 2.94186 5.92816 3.03541 6.0525 3.12895C6.31501 2.96859 6.61896 2.84832 6.96436 2.79487C6.8262 2.68797 6.67422 2.60779 6.49461 2.52761ZM5.3617 2.66124C5.51368 2.55434 5.72092 2.43407 5.95579 2.36725C5.76237 2.32716 5.54131 2.3138 5.30644 2.3138C5.33407 2.39398 5.34789 2.52761 5.3617 2.66124ZM12.1453 5.18686C12.0763 5.18686 11.9657 5.20022 11.8552 5.2804C11.9381 5.41403 12.0072 5.56102 12.0486 5.72138C12.1315 5.62784 12.2282 5.52094 12.3111 5.44076C12.2559 5.34722 12.2006 5.26704 12.1453 5.18686ZM11.6203 5.54766C11.4822 5.80156 11.4131 6.16236 11.3855 6.37617C11.3855 6.41626 11.3855 6.45635 11.3855 6.49644C11.3855 6.52317 11.3855 6.54989 11.3855 6.57662C11.4822 6.42962 11.6203 6.2559 11.7723 6.05546C11.7447 5.88174 11.6894 5.70802 11.6203 5.54766ZM11.2888 5.77483C11.344 5.61448 11.3993 5.46748 11.4822 5.33385C11.1644 4.90624 10.6532 4.61225 10.1835 4.42516C10.1973 4.47862 10.2249 4.51871 10.2387 4.57216C10.598 4.78597 11.0815 5.1735 11.2888 5.77483ZM11.7309 5.09332C11.8138 5.03987 11.8828 5.01314 11.9657 4.98641C11.3993 4.4118 10.598 4.06436 10.1006 3.89064C10.0868 3.93073 10.0868 3.98418 10.0729 4.02427C10.598 4.21136 11.3026 4.54543 11.7309 5.09332ZM12.6289 7.32495C12.8223 7.2715 13.0434 7.16459 13.1815 6.89733L13.1954 6.91069C13.3197 6.57662 13.3335 6.21582 13.3335 5.93519C13.2368 6.05546 13.1401 6.18909 13.0158 6.30936L12.9743 6.4029C12.9743 6.79043 12.8361 7.09778 12.6289 7.32495ZM12.919 7.39176C12.7118 7.49867 12.4907 7.52539 12.3526 7.53876C12.1039 7.68575 11.8138 7.79266 11.4822 7.84611V7.85947C11.496 7.87283 11.496 7.89956 11.5098 7.91292C11.7309 7.95301 12.1039 7.9931 12.4769 7.79266C12.6151 7.69911 12.7532 7.57885 12.8914 7.41849C12.9052 7.41849 12.919 7.40513 12.919 7.39176ZM10.8466 8.56771C10.9986 8.51426 11.1506 8.39399 11.2473 8.15346C11.2197 8.07328 11.192 8.00646 11.1506 7.95301C11.1368 7.96638 11.1091 7.97974 11.0953 7.9931C11.0401 8.19355 10.9434 8.39399 10.8466 8.56771ZM11.2888 7.3784C11.2749 7.31159 11.2611 7.24477 11.2335 7.17796C11.192 7.25813 11.1644 7.33831 11.1091 7.41849C11.123 7.43185 11.1506 7.44522 11.1782 7.47194C11.2197 7.44522 11.2473 7.41849 11.2888 7.3784ZM11.344 6.96415C11.3716 7.03096 11.3993 7.11114 11.4269 7.20468C11.496 7.1245 11.5513 7.03096 11.5927 6.93742C11.5098 6.95078 11.4269 6.96415 11.344 6.96415ZM11.3026 8.43408C11.1368 8.67462 10.9157 8.7548 10.7361 8.78152C10.7361 8.79489 10.7361 8.80825 10.7361 8.83498C10.9019 8.83498 11.0815 8.83498 11.2611 8.83498V8.82161C11.3026 8.67462 11.3026 8.54099 11.3026 8.43408ZM12.0624 8.03319C11.869 8.05992 11.7032 8.04655 11.5651 8.01983C11.5789 8.05992 11.5927 8.10001 11.6065 8.1401C11.717 8.12673 11.869 8.10001 12.0624 8.03319ZM9.14728 11.708C9.17491 11.7481 9.17491 11.7748 9.17491 11.7882C9.18873 11.8283 9.17491 11.8417 9.11965 11.8016C9.10583 11.8016 9.09201 11.7882 9.06438 11.7615C9.00912 11.8016 8.95386 11.8417 8.88478 11.8684C8.48411 12.1089 8.09727 12.2292 7.76568 12.2559C7.86239 12.3895 8.02818 12.6835 8.15253 13.1112C8.31832 13.1646 8.4703 13.1913 8.63609 13.1913C9.13346 13.2047 9.64465 13.1512 9.65847 12.5766C9.65847 12.4163 9.63084 12.2559 9.57557 12.1223C9.50649 11.9486 9.39597 11.7615 9.28544 11.5878C9.24399 11.6412 9.20254 11.6679 9.14728 11.708ZM7.59989 12.2826C7.57226 12.2826 7.54463 12.296 7.50318 12.296C7.50318 12.4163 7.48936 12.6167 7.42028 12.7904C7.61371 12.8973 7.80713 13.0043 8.01437 13.0711C7.87621 12.6702 7.6966 12.4029 7.59989 12.2826ZM5.32025 12.2292L5.27881 12.1757V12.2426H5.30644L5.32025 12.2292ZM5.88671 11.7481C6.01105 11.8149 6.1354 11.8818 6.24592 11.8684C6.35645 11.855 6.43935 11.8016 6.49461 11.7348L6.59132 11.5878C6.38408 11.6279 6.20448 11.6546 6.09395 11.6679C6.03869 11.6813 5.98342 11.6813 5.92816 11.6813L5.88671 11.7481ZM4.063 10.639C4.1459 10.7192 4.25643 10.8261 4.39459 10.9196C4.50511 10.8261 4.61564 10.6924 4.69854 10.492L4.47748 10.2247C4.35314 10.345 4.21498 10.4786 4.063 10.639ZM4.7538 11.08C4.89196 11.1067 5.0163 11.08 5.14065 10.9864C5.14065 10.786 5.14065 10.6123 5.14065 10.4653L5.07157 10.5054C4.98867 10.7726 4.87814 10.9463 4.7538 11.08ZM5.27881 10.8795C5.37552 10.7993 5.43078 10.7192 5.48605 10.639L5.29262 10.3851L5.27881 10.3985V10.8795ZM5.54131 11.2537C5.62421 11.2671 5.81763 11.3071 6.01105 11.3339C6.09395 11.2136 6.19066 11.1067 6.27356 10.9864C6.16303 10.9463 6.02487 10.8795 5.90053 10.7993C5.83145 10.8929 5.76237 10.9731 5.69329 11.0666C5.63802 11.1334 5.58276 11.1869 5.54131 11.2537ZM6.17685 11.3472C6.25974 11.3606 6.34264 11.3606 6.41172 11.3606C6.43935 11.3606 6.45316 11.3606 6.4808 11.3472C6.53606 11.3339 6.59132 11.3071 6.6604 11.2938C6.72948 11.2671 6.78475 11.2403 6.8262 11.2002L6.85383 11.1601C6.78475 11.1334 6.7433 11.1067 6.72948 11.1067C6.68804 11.1067 6.56369 11.08 6.3979 11.0265C6.32882 11.1468 6.24592 11.2403 6.17685 11.3472ZM4.27024 4.87951L4.33932 5.34722L4.24261 5.42739C4.17353 5.40067 4.09063 5.3873 4.00774 5.36058C3.91103 5.33385 3.81431 5.32049 3.73142 5.29376C3.82813 5.1735 3.93866 5.06659 4.09063 4.97305C4.1459 4.94632 4.21498 4.90623 4.27024 4.87951ZM6.53606 3.85055C6.71567 3.83719 7.01962 3.7971 7.36502 3.78374C7.48936 3.78374 7.59989 3.77037 7.68279 3.78374C7.64134 3.65011 7.57226 3.51648 7.47555 3.36948C7.01962 3.39621 6.68804 3.50311 6.43935 3.61002C6.46698 3.6902 6.50843 3.77037 6.53606 3.85055ZM7.6966 3.86392C7.61371 3.86392 7.48936 3.86392 7.3512 3.86392C7.15778 3.87728 6.97817 3.89064 6.8262 3.90401C7.18541 3.93073 7.48936 3.98418 7.72423 3.99755C7.72423 3.97082 7.72423 3.91737 7.6966 3.86392ZM1.57613 7.56548C1.60376 7.64566 1.58994 7.72584 1.52086 7.76593C1.53468 7.91292 1.5485 8.08664 1.58994 8.26036C1.63139 8.46081 1.68666 8.64789 1.74192 8.82161C1.78337 8.62117 1.86626 8.40736 2.05969 8.23364C1.97679 8.04655 1.88008 7.81938 1.79718 7.55212C1.5485 7.52539 1.57613 7.56548 1.57613 7.56548ZM1.52086 7.25813C1.57613 7.24477 1.63139 7.24477 1.70047 7.24477C1.68666 7.21804 1.68666 7.17796 1.67284 7.15123C1.63139 7.17796 1.57613 7.20468 1.53468 7.24477L1.52086 7.25813ZM2.11495 7.2715C2.22548 7.28486 2.34982 7.31159 2.48798 7.35168C2.43272 7.05769 2.43272 6.81715 2.47417 6.60334C2.54325 6.32272 2.68141 6.10891 2.88864 5.94855C2.87483 5.90846 2.86101 5.85501 2.8472 5.80156C2.51561 6.06882 2.12877 6.52317 2.11495 7.2715ZM2.73667 7.41849C2.77812 7.43185 2.83338 7.44522 2.87483 7.45858C2.86101 7.24477 2.88864 6.96415 3.05444 6.67016C3.09588 6.58998 3.13733 6.52317 3.1926 6.46971C3.17878 6.38953 3.17878 6.22918 3.20641 6.02873C3.17878 6.04209 3.16496 6.05546 3.13733 6.06882C2.91628 6.18909 2.7643 6.37617 2.69522 6.6568C2.65377 6.85724 2.66759 7.11114 2.73667 7.41849ZM2.91628 7.81938L2.86101 7.79266L2.87483 7.81938H2.91628ZM2.58469 7.72584C2.54325 7.71248 2.51561 7.71248 2.47417 7.69911C2.34982 7.67239 2.23929 7.64566 2.14258 7.61894C2.14258 7.67239 2.1564 7.72584 2.17021 7.77929C2.21166 7.8862 2.25311 7.97974 2.29456 8.05992C2.39127 7.9931 2.51561 7.93965 2.65377 7.89956C2.61233 7.83275 2.59851 7.77929 2.58469 7.72584ZM4.50511 12.2292V12.2826L4.54656 12.2426L4.50511 12.2292ZM13.6098 5.25367C13.596 5.26704 13.5822 5.29376 13.5684 5.32049C13.5269 5.3873 13.4717 5.45412 13.4302 5.52094C13.4302 5.54766 13.4302 5.57439 13.444 5.58775C13.5131 5.46748 13.5684 5.34722 13.6098 5.25367ZM13.3197 5.70802C13.2644 5.80156 13.2092 5.90846 13.1539 6.00201C13.2092 5.92183 13.2783 5.85501 13.3197 5.77483V5.70802ZM12.9467 6.20245C13.0434 6.00201 13.1677 5.77483 13.2921 5.56102C13.2783 5.45412 13.2644 5.38731 13.2644 5.37394C13.1954 4.99978 12.9329 5.05323 12.6289 5.30713C12.7947 5.57439 12.9052 5.86838 12.9467 6.20245ZM2.61233 9.99756C2.70904 9.85057 2.87483 9.67685 3.1097 9.52985C2.91628 9.38286 2.68141 9.16905 2.47417 8.90179C2.26693 9.12896 2.21166 9.39622 2.22548 9.6234C2.28074 9.69021 2.43272 9.86393 2.61233 9.99756ZM3.17878 9.6234C2.95772 9.75703 2.80575 9.91738 2.70904 10.051C2.87483 10.1579 2.97154 10.198 3.0268 10.2114L3.08207 10.1713C3.08207 10.1312 3.09588 10.0777 3.1097 9.97083C3.1097 9.85057 3.15115 9.71694 3.17878 9.6234ZM5.38933 3.12895C5.38933 3.15567 5.38933 3.19576 5.38933 3.22249C5.38933 3.35612 5.3617 3.52984 5.34789 3.70356C5.47223 3.56993 5.61039 3.44966 5.76237 3.32939C5.67947 3.26258 5.58276 3.20913 5.48605 3.15567C5.4446 3.15567 5.41697 3.14231 5.38933 3.12895ZM5.29262 4.11781C5.27881 4.23808 5.25118 4.35835 5.23736 4.46525C5.29262 4.39844 5.3617 4.33162 5.43078 4.26481L5.29262 4.11781ZM5.0163 2.70133C5.00249 2.5677 4.98867 2.46079 4.97486 2.36725C4.78143 2.48752 4.61564 2.60779 4.46367 2.72806C4.62946 2.68797 4.82288 2.6746 5.0163 2.70133ZM11.5374 4.22472C11.7309 4.11781 12.0624 3.91737 12.3111 3.63674C12.2282 3.61002 12.1453 3.61002 12.021 3.62338C11.8967 3.63674 11.7723 3.66347 11.648 3.70356C11.5651 3.81046 11.4684 3.94409 11.3578 4.11781C11.4131 4.14454 11.4684 4.18463 11.5374 4.22472ZM11.2888 4.06436C11.3578 3.94409 11.4269 3.83719 11.496 3.75701C11.3302 3.82383 11.1782 3.89064 11.0677 3.95746C11.1368 3.98418 11.2059 4.02427 11.2888 4.06436ZM12.6013 6.61671C12.4217 6.72361 12.2282 6.81715 12.0072 6.8706C11.9243 7.09778 11.7999 7.29822 11.6618 7.47194C12.1453 7.33831 12.5184 7.07105 12.6013 6.61671ZM10.9434 6.97751C10.8743 6.97751 10.8052 6.96415 10.7499 6.96415C10.7914 7.0176 10.8466 7.07105 10.8881 7.1245C10.9019 7.08441 10.9157 7.03096 10.9434 6.97751ZM10.6256 6.8706C10.7223 6.88397 10.8328 6.89733 10.9572 6.89733C10.9986 6.7637 11.0263 6.63007 11.0263 6.48308C11.0539 5.84165 10.7223 5.3873 10.3769 5.09332C10.4183 5.30713 10.4322 5.48085 10.4322 5.65457C10.4598 5.85501 10.4736 6.06882 10.4736 6.29599C10.4736 6.45635 10.4598 6.61671 10.4598 6.75034C10.5289 6.77706 10.5841 6.81715 10.6256 6.8706ZM11.3302 6.88397C11.4269 6.8706 11.5236 6.8706 11.6342 6.84388C11.7032 6.67016 11.7585 6.48308 11.7585 6.26927C11.5789 6.53653 11.4131 6.7637 11.3302 6.88397ZM12.0348 6.7637C12.2421 6.69689 12.4355 6.60334 12.6013 6.49644C12.6013 6.45635 12.6013 6.42962 12.6013 6.38953C12.5875 6.06882 12.5046 5.7882 12.3664 5.5343C12.2697 5.6412 12.173 5.74811 12.0763 5.86838C12.0901 5.92183 12.0901 5.98864 12.1039 6.0421C12.1315 6.32272 12.1039 6.54989 12.0348 6.7637ZM10.3769 6.13564C10.3078 6.33608 10.2111 6.48308 10.1144 6.57662C10.1835 6.60334 10.2664 6.63007 10.3493 6.68352C10.3493 6.56325 10.3631 6.42962 10.3631 6.28263C10.3769 6.24254 10.3769 6.18909 10.3769 6.13564ZM9.87953 6.12227C9.89334 6.149 9.90716 6.17573 9.92097 6.18909C9.93479 6.20245 9.93479 6.22918 9.9486 6.24254C9.99005 6.149 10.0591 5.94855 9.99005 5.60111C9.87953 5.12004 9.63084 5.50757 9.63084 5.50757C9.75518 5.65457 9.83808 5.93519 9.87953 6.12227ZM10.1144 6.81715C10.1558 7.1245 10.1282 7.40513 10.0868 7.57885C10.142 7.57885 10.2111 7.59221 10.2802 7.59221C10.3078 7.43185 10.3216 7.20468 10.3493 6.93742C10.2664 6.88397 10.1835 6.84388 10.1144 6.81715ZM3.64852 5.06659C3.73142 4.97305 3.84195 4.87951 3.96629 4.79933C4.13208 4.69243 4.29787 4.61225 4.44985 4.55879C4.38077 4.57216 4.31169 4.58552 4.22879 4.59888L4.21498 4.61225C4.21498 4.61225 4.21498 4.61225 4.20116 4.59888C4.00774 4.63897 3.81431 4.70579 3.63471 4.79933C3.56563 4.83942 3.49655 4.86615 3.44128 4.90623C3.51036 4.95969 3.59326 5.01314 3.64852 5.06659ZM3.26168 6.7637C3.12352 7.03096 3.08207 7.25813 3.09588 7.44522C3.15115 7.2715 3.23404 7.05769 3.35839 6.81715C3.46892 6.60334 3.62089 6.44299 3.77287 6.32272C3.59326 6.4029 3.38602 6.53653 3.26168 6.7637ZM2.17021 8.44745C1.83863 8.84834 1.96297 9.34277 1.96297 9.34277H1.93534C1.96297 9.40959 1.99061 9.4764 2.03205 9.52985C2.03205 9.27596 2.10113 8.98197 2.34982 8.72807C2.29456 8.66126 2.22548 8.55435 2.17021 8.44745ZM2.54325 4.31826C2.51561 4.27817 2.46035 4.19799 2.37745 4.11781C2.11495 4.42516 1.96297 4.75924 1.86626 5.13341C2.21166 5.12004 2.5018 5.18686 2.66759 5.25367C2.68141 5.21359 2.70904 5.16013 2.75049 5.10668C2.66759 4.94632 2.54325 4.65234 2.54325 4.31826ZM8.22161 1.953L8.26306 1.89955C8.20779 1.88618 8.15253 1.87282 8.08345 1.85946C8.1249 1.89955 8.18016 1.92627 8.22161 1.953ZM10.4598 7.00424C10.446 7.24477 10.4183 7.43185 10.4045 7.57885C10.4736 7.57885 10.5427 7.57885 10.6118 7.57885C10.667 7.51203 10.7223 7.43185 10.7776 7.35168C10.6809 7.21804 10.5703 7.09778 10.4598 7.00424ZM10.3493 8.82161L10.3769 8.78152C10.3631 8.62117 10.3216 8.5009 10.2664 8.38063H10.2526C10.1973 8.43408 10.1282 8.47417 10.0729 8.51426C10.0729 8.56771 10.0729 8.63453 10.0868 8.70134C10.0868 8.72807 10.1006 8.76816 10.1006 8.80825C10.1835 8.80825 10.2664 8.80825 10.3493 8.82161ZM11.2059 9.03542C11.0401 9.03542 10.8881 9.03542 10.7361 9.03542C10.7223 9.16905 10.6947 9.28932 10.6532 9.39622C10.7361 9.42295 10.8328 9.44968 10.9295 9.4764C11.0401 9.3695 11.1368 9.2225 11.2059 9.03542ZM10.667 8.42072C10.7223 8.34054 10.7637 8.247 10.8052 8.15346C10.7361 8.19355 10.667 8.22027 10.6118 8.247C10.6256 8.30045 10.6394 8.36727 10.667 8.42072ZM10.5012 9.7303C10.4736 9.77039 10.446 9.79712 10.446 9.79712L10.3078 9.69021L10.2526 9.67685L10.3631 9.87729C10.4183 9.85057 10.5012 9.81048 10.598 9.75703L10.5012 9.7303ZM3.33076 10.4653L3.35839 10.492C3.48273 10.5855 3.68997 10.5588 3.68997 10.5588C3.68997 10.5588 3.59326 10.4653 3.51036 10.3851C3.44128 10.3049 3.33076 10.1045 3.33076 10.1045C3.33076 10.1045 3.23404 10.345 3.33076 10.4653ZM5.07157 11.6279C4.98867 11.6145 4.89196 11.5878 4.79525 11.5744C4.73998 11.708 4.65709 11.8818 4.4913 12.0287C4.54656 12.0555 4.60182 12.0688 4.65709 12.0956C4.79525 11.9486 4.93341 11.7882 5.07157 11.6279ZM1.52086 11.2537C1.52086 11.227 1.53468 11.2002 1.57613 11.1869C1.60376 11.1869 1.63139 11.2002 1.64521 11.2403C1.64521 11.2403 1.76955 12.6167 2.57088 12.0956C1.96298 11.7481 1.71429 11.2002 1.71429 11.2002C1.70047 11.1601 1.71429 11.1067 1.75574 11.08C1.79718 11.0532 1.85245 11.08 1.88008 11.1201C1.88008 11.1201 2.11495 11.6546 2.72285 11.9619C2.81956 11.8818 2.91628 11.7748 3.01299 11.6546L3.04062 11.6145C2.88864 11.521 2.73667 11.414 2.58469 11.2804C2.22548 10.9597 1.99061 10.5722 1.85245 10.2782C1.53468 10.4786 1.18928 10.8528 1.28599 11.521C1.32744 11.855 1.4656 12.1089 1.64521 12.2826C1.79718 12.4296 1.99061 12.5232 2.18403 12.5633C2.37745 12.6034 2.58469 12.59 2.75049 12.5232C2.88864 12.4697 3.01299 12.3895 3.09588 12.2826C2.93009 12.2426 2.79193 12.1891 2.65377 12.1357C1.68666 12.9508 1.52086 11.2537 1.52086 11.2537ZM3.17878 11.4541L3.23404 11.3873C2.88864 11.0933 2.51561 10.7058 2.18403 10.198L2.12877 10.1579C2.10113 10.1713 2.0735 10.1846 2.05969 10.1846C2.18403 10.4653 2.40509 10.8261 2.75049 11.1334C2.87483 11.2671 3.0268 11.374 3.17878 11.4541ZM3.34457 11.2403L3.538 10.9998L3.22023 11.1201C3.26168 11.1735 3.30312 11.2136 3.34457 11.2403ZM3.95247 10.5054C4.07682 10.345 4.20116 10.198 4.29787 10.0644C4.17353 9.9842 3.95247 9.90402 3.78668 10.051C3.60708 10.2114 3.82813 10.4118 3.95247 10.5054ZM3.33076 11.4675L3.28931 11.521C3.38602 11.5744 3.48273 11.6279 3.57944 11.6679C3.49655 11.6011 3.41365 11.5343 3.33076 11.4675ZM5.14065 11.7348C5.0163 11.8818 4.90578 12.0154 4.79525 12.1357C4.90578 12.1757 5.03012 12.2025 5.14065 12.2158C5.14065 12.0421 5.14065 11.8818 5.14065 11.7348ZM2.91628 4.90623C2.95772 4.86615 3.01299 4.81269 3.06825 4.7726C3.04062 4.57216 2.99917 4.03764 3.26168 3.55657C3.20641 3.56993 3.16496 3.58329 3.1097 3.59665C2.61233 3.99755 2.77812 4.59888 2.91628 4.90623ZM4.15971 4.27817C4.22879 4.26481 4.31169 4.25145 4.38077 4.23808C4.33932 4.07773 4.32551 3.86392 4.43603 3.62338C4.32551 3.59666 4.21498 3.55657 4.10445 3.5432C4.00774 3.89064 4.07682 4.13118 4.15971 4.27817ZM2.58469 5.40067C2.4189 5.34722 2.1564 5.2804 1.82482 5.30713C1.79718 5.45412 1.78337 5.58775 1.78337 5.73475C1.78337 5.85501 1.78337 5.98864 1.78337 6.10891C2.05969 5.73474 2.39127 5.52094 2.58469 5.40067ZM0.567562 6.37617C0.581378 6.42962 0.595194 6.49644 0.622826 6.54989C0.650458 6.61671 0.691906 6.67016 0.719538 6.71025C0.816249 6.81715 0.912961 6.8706 0.982041 6.88397C1.00967 6.88397 1.0373 6.88397 1.06494 6.88397C1.07875 6.88397 1.09257 6.8706 1.10638 6.84388C1.1202 6.81715 1.1202 6.7637 1.10638 6.69689C1.07875 6.57662 0.885329 6.46971 0.664274 6.4029C0.636642 6.4029 0.595194 6.38953 0.567562 6.37617ZM0.457034 6.63007C0.415586 6.54989 0.387954 6.45635 0.374138 6.36281C0.305058 6.36281 0.249795 6.37617 0.208347 6.38953C0.180715 6.4029 0.166899 6.42962 0.166899 6.45635C0.153083 6.61671 0.33269 6.6568 0.47085 6.67016C0.47085 6.6568 0.457034 6.64343 0.457034 6.63007ZM6.21829 3.30267C6.25974 3.34276 6.28737 3.38285 6.315 3.42294C6.56369 3.30267 6.89528 3.19576 7.32357 3.15567C7.28212 3.10222 7.24067 3.04877 7.18541 2.99532C7.15778 2.99532 7.13015 2.99532 7.0887 3.00868C6.75712 3.03541 6.46698 3.14231 6.21829 3.30267ZM6.19066 3.93073C6.17685 3.87728 6.14921 3.83719 6.12158 3.78374C6.02487 3.85055 5.95579 3.91737 5.91434 3.97082C5.99724 3.95746 6.09395 3.94409 6.19066 3.93073ZM7.94529 3.11558C8.08345 3.11558 8.20779 3.11558 8.33214 3.10222C8.19398 3.06213 8.042 3.02204 7.87621 2.99532C7.90384 3.04877 7.91766 3.0755 7.94529 3.11558ZM13.1263 10.0911C13.0848 10.1713 13.0157 10.2515 12.919 10.2515C12.8223 10.2515 12.7394 10.1579 12.6842 10.0777C12.8361 10.0777 12.9743 10.0911 13.1263 10.0911ZM1.60376 6.8706C1.58994 6.91069 1.57613 6.95078 1.56231 7.00424L1.61758 6.96415C1.61758 6.93742 1.61758 6.89733 1.60376 6.8706ZM0.912961 8.79489C0.871513 8.66126 0.857697 8.52763 0.843881 8.40736C0.830065 8.28709 0.830065 8.15346 0.843881 8.03319C0.788617 8.18018 0.774801 8.34054 0.816249 8.51426C0.830065 8.6078 0.871513 8.70134 0.912961 8.79489ZM9.75518 8.34054C9.81044 8.31382 9.85189 8.27373 9.90716 8.23364C9.92097 8.22027 9.92097 8.19355 9.92097 8.18019C9.9486 8.00646 9.769 7.95301 9.769 7.95301C9.769 7.95301 9.78281 8.19355 9.72755 8.30045C9.71373 8.32718 9.72755 8.34054 9.75518 8.34054ZM4.07682 9.15569C4.27024 9.16905 4.46367 9.1156 4.46367 9.1156C4.46367 9.1156 4.42222 9.24923 4.31169 9.24923C4.20116 9.26259 4.07682 9.15569 4.07682 9.15569ZM8.53938 10.1713C8.56701 10.1713 8.80188 10.2648 9.02293 10.0377C9.24399 9.81048 9.16109 9.50313 9.16109 9.50313C9.16109 9.50313 9.09202 9.74366 8.87096 9.93075C8.6499 10.1178 8.53938 10.1713 8.53938 10.1713ZM8.4703 9.75703C8.4703 9.75703 8.60846 9.81048 8.74662 9.70357C8.89859 9.59667 8.80188 9.42295 8.80188 9.42295L8.4703 9.75703ZM9.16109 10.2915C9.16109 10.2915 9.36833 10.2247 9.43741 10.0109C9.50649 9.79712 9.49268 9.67685 9.49268 9.67685C9.49268 9.67685 9.67229 9.94411 9.56176 10.1045C9.46505 10.2782 9.16109 10.2915 9.16109 10.2915ZM9.35452 6.44299C9.35452 6.44299 9.40978 6.58998 9.49268 6.60334C9.57557 6.63007 9.63084 6.60334 9.63084 6.60334C9.63084 6.60334 9.67229 6.80379 9.52031 6.7637C9.36833 6.72361 9.35452 6.44299 9.35452 6.44299ZM9.25781 5.96192C9.4236 6.10891 9.57557 6.4029 9.57557 6.4029C9.57557 6.4029 9.38215 6.36281 9.28544 6.26927C9.20254 6.17573 9.25781 5.96192 9.25781 5.96192ZM9.39597 5.33385L8.96767 4.82606C8.96767 4.82606 9.25781 4.7726 9.36833 4.90623C9.49268 5.05323 9.39597 5.33385 9.39597 5.33385ZM8.67754 5.2804C8.67754 5.2804 8.70517 5.0265 8.44266 4.75924C8.18016 4.49198 7.93147 4.74588 7.93147 4.74588C7.93147 4.74588 8.27687 4.86615 8.40122 4.97305C8.51174 5.07995 8.67754 5.2804 8.67754 5.2804ZM3.8005 7.29822C3.81431 7.21804 3.95247 7.08441 3.95247 7.08441C3.95247 7.08441 3.8005 7.07105 3.77287 7.13787C3.74523 7.21804 3.8005 7.29822 3.8005 7.29822ZM3.26168 8.76816C3.26168 8.76816 3.39984 8.83498 3.538 8.8617C3.67616 8.88843 3.77287 8.87506 3.77287 8.87506C3.77287 8.87506 3.46892 9.04878 3.34457 8.95524C3.20641 8.8617 3.26168 8.76816 3.26168 8.76816ZM3.99392 8.47417C3.99392 8.47417 3.93866 8.62117 3.93866 8.80825C3.93866 8.99533 4.09063 9.06215 4.09063 9.06215C4.09063 9.06215 3.99392 8.83498 3.99392 8.47417ZM5.54131 10.0243C5.54131 10.0243 5.77618 10.1846 6.01105 10.2515C6.0525 10.2648 6.10777 10.2782 6.1354 10.2782C6.23211 10.2915 6.28737 10.2915 6.28737 10.2915C6.28737 10.2915 6.19066 10.3584 6.06632 10.3851C6.01105 10.3851 5.95579 10.3851 5.90053 10.3584C5.58276 10.3183 5.54131 10.0243 5.54131 10.0243ZM7.36502 10.8929C7.36502 10.8929 7.4341 10.9998 7.53081 11.0532C7.62752 11.0933 7.50318 11.1334 7.39265 11.0666C7.28212 10.9864 7.36502 10.8929 7.36502 10.8929ZM7.54463 10.6657C7.54463 10.6657 7.93147 10.7593 8.20779 10.639C8.48411 10.5187 8.58082 10.3851 8.58082 10.3851C8.58082 10.3851 8.34595 11.0132 8.08345 11.0132C7.80713 11.0132 7.54463 10.6657 7.54463 10.6657Z" fill="black"/>
</svg>
