<svg viewBox="1 1 14 14" fill="none" xmlns="http://www.w3.org/2000/svg">
<path fill-rule="evenodd" clip-rule="evenodd" d="M14 8C14 11.3137 11.3137 14 8 14C4.68629 14 2 11.3137 2 8C2 4.68629 4.68629 2 8 2C11.3137 2 14 4.68629 14 8ZM7.00148 9.22022L9.7836 6.70962C9.90571 6.60125 9.75694 6.54841 9.59484 6.6467L6.16119 8.81295L4.67804 8.35004C4.35775 8.25197 4.35545 8.03187 4.74995 7.87364L10.5295 5.64509C10.7934 5.52525 11.0482 5.70849 10.9474 6.1125L9.96317 10.7506C9.89444 11.0802 9.6953 11.1591 9.41937 11.0068L7.92014 9.89902L7.19938 10.5999L7.19259 10.6065C7.11199 10.6849 7.0453 10.7499 6.89938 10.7499L7.00148 9.22022Z" fill="black"/>
</svg>
