<svg viewBox="0 0 20 18" xmlns="http://www.w3.org/2000/svg" xmlns:xlink="http://www.w3.org/1999/xlink">
    <path d="M 17.6796 4.6871 C 17.1358 4.9359 16.5502 5.1017 15.9228 5.1847 C 16.5502 4.8115 17.0522 4.1895 17.2613 3.4847 C 16.6757 3.8164 16.0064 4.1066 15.2953 4.231 C 14.7515 3.6505 13.915 3.2773 13.0366 3.2773 C 11.3216 3.2773 9.9412 4.6456 9.9412 6.3456 C 9.9412 6.5944 9.983 6.8017 10.0248 7.0505 C 7.4733 6.9261 5.1727 5.7237 3.6668 3.8578 C 3.4159 4.3139 3.2485 4.853 3.2485 5.392 C 3.2485 6.47 3.7923 7.3822 4.6289 7.9212 C 4.1269 7.9212 3.6668 7.7554 3.2485 7.5481 L 3.2485 7.5895 C 3.2485 9.0822 4.2943 10.3261 5.7164 10.5749 C 5.4655 10.6578 5.1727 10.6993 4.9217 10.6993 C 4.7126 10.6993 4.5452 10.6993 4.3361 10.6578 C 4.7126 11.8603 5.8838 12.7725 7.2223 12.7725 C 6.1766 13.6017 4.838 14.0993 3.374 14.0993 C 3.123 14.0993 2.8721 14.0993 2.6211 14.0578 C 4.0015 14.9286 5.6328 15.4261 7.3478 15.4261 C 13.0366 15.4261 16.1319 10.7408 16.1319 6.7188 C 16.1319 6.5944 16.1319 6.47 16.1319 6.3042 C 16.7175 5.8481 17.2613 5.3091 17.6796 4.6871 L 17.6796 4.6871 Z" />
</svg>
