<svg viewBox="0 0 16 13" xmlns="http://www.w3.org/2000/svg" xmlns:xlink="http://www.w3.org/1999/xlink">
    <path d="M15.9922 3.00729C15.921 4.4704 14.8333 6.47345 12.7291 9.01644C10.5537 11.6717 8.7131 13 7.20809 13C6.27504 13 5.48591 12.1917 4.84106 10.574C4.41061 9.09114 3.98053 7.60844 3.54989 6.12557C3.07091 4.50871 2.55762 3.69941 2.00816 3.69941C1.88842 3.69941 1.46959 3.93601 0.752414 4.40714L0 3.49644C0.789685 2.84488 1.56848 2.19314 2.33474 1.54054C3.38789 0.686 4.17906 0.236198 4.706 0.190958C5.95068 0.078464 6.71712 0.877881 7.00476 2.58921C7.31565 4.43591 7.53097 5.58425 7.65164 6.0337C8.01106 7.5658 8.40608 8.33107 8.83727 8.33107C9.17178 8.33107 9.67511 7.8343 10.346 6.84005C11.0155 5.8465 11.3746 5.09042 11.4229 4.57076C11.5187 3.71328 11.1596 3.28341 10.346 3.28341C9.96294 3.28341 9.56791 3.36627 9.16163 3.52989C9.94818 1.11067 11.4504 -0.0643633 13.6678 0.00271696C15.3118 0.0479572 16.0872 1.04948 15.9922 3.00729Z"/>
</svg>
