<svg viewBox="0 0 20 11" xmlns="http://www.w3.org/2000/svg" xmlns:xlink="http://www.w3.org/1999/xlink">
    <path d="M10.9808 10.954C10.9808 10.954 11.3418 10.9154 11.5267 10.7239C11.6959 10.5485 11.69 10.2175 11.69 10.2175C11.69 10.2175 11.6675 8.67184 12.4119 8.44362C13.1456 8.21917 14.0876 9.93836 15.0873 10.5994C15.8425 11.0993 16.4157 10.9899 16.4157 10.9899L19.0872 10.954C19.0872 10.954 20.4841 10.871 19.8218 9.81199C19.767 9.72523 19.4354 9.02831 17.8361 7.59676C16.1604 6.09825 16.3854 6.34061 18.4024 3.74816C19.6311 2.16949 20.1221 1.20569 19.9685 0.79358C19.8228 0.399384 18.9189 0.504063 18.9189 0.504063L15.9119 0.521981C15.9119 0.521981 15.6889 0.492747 15.5236 0.587995C15.3622 0.681357 15.2575 0.899202 15.2575 0.899202C15.2575 0.899202 14.7821 2.12045 14.1473 3.1597C12.8081 5.35135 12.273 5.46735 12.0539 5.33155C11.5443 5.01374 11.6714 4.05654 11.6714 3.3766C11.6714 1.2519 12.006 0.366378 11.0209 0.137216C10.6942 0.0608288 10.4536 0.010847 9.61722 0.00235955C8.54413 -0.00801402 7.63636 0.00613175 7.12183 0.248496C6.77946 0.409758 6.51534 0.770004 6.67675 0.790751C6.87532 0.816213 7.32529 0.90769 7.56397 1.22078C7.87211 1.62535 7.86135 2.53257 7.86135 2.53257C7.86135 2.53257 8.0384 5.03354 7.44757 5.34381C7.04259 5.55694 6.48698 5.12219 5.29259 3.13329C4.68122 2.1148 4.21951 0.988792 4.21951 0.988792C4.21951 0.988792 4.13049 0.778491 3.97104 0.665325C3.77834 0.528583 3.50933 0.486145 3.50933 0.486145L0.652008 0.504063C0.652008 0.504063 0.222578 0.51538 0.0650879 0.695503C-0.0747948 0.854879 0.0543277 1.18589 0.0543277 1.18589C0.0543277 1.18589 2.29147 6.23216 4.82501 8.77557C7.14824 11.1068 9.78547 10.954 9.78547 10.954H10.9808Z"/>
</svg>
