<svg viewBox="0 0 20 18" xmlns="http://www.w3.org/2000/svg" xmlns:xlink="http://www.w3.org/1999/xlink" fill="#fff">
    <path d="M 14.326 15.3149 C 14.2265 14.8674 13.8287 12.6298 12.8343 9.8453 C 15.3204 9.4475 17.4586 10.1436 17.6077 10.1934 C 17.2597 12.3315 16.0166 14.1713 14.326 15.3149 L 14.326 15.3149 ZM 10.0497 16.6575 C 8.2099 16.6575 6.5193 16.011 5.1768 14.9171 C 5.2762 15.0166 5.326 15.0663 5.326 15.0663 C 5.326 15.0663 6.768 11.884 11.3425 10.2928 L 11.3923 10.2928 C 12.4862 13.0773 12.9337 15.4144 13.0331 16.1105 C 12.0884 16.4088 11.0939 16.6575 10.0497 16.6575 L 10.0497 16.6575 ZM 2.3923 9 C 2.3923 8.9006 2.3923 8.8508 2.3923 8.7514 C 2.5414 8.7514 6.3204 8.8508 10.2486 7.6575 C 10.4475 8.105 10.6961 8.5028 10.8453 8.9503 C 10.7459 9 10.6464 9 10.547 9.0497 C 6.4199 10.3923 4.3315 14.0718 4.3315 14.0718 C 3.1381 12.7293 2.3923 10.9392 2.3923 9 L 2.3923 9 ZM 6.768 2.0884 C 6.8674 2.2376 8.2597 4.1271 9.6022 6.5138 C 5.9226 7.5083 2.7403 7.4586 2.5414 7.4586 C 3.0884 5.0718 4.6298 3.0829 6.768 2.0884 L 6.768 2.0884 ZM 15.0718 3.2818 C 15.0718 3.3315 13.9779 4.9724 11.0939 6.0663 C 9.8011 3.6796 8.3591 1.7403 8.2597 1.5912 C 8.8564 1.442 9.453 1.3923 10.0497 1.3923 C 11.9889 1.3425 13.7293 2.0884 15.0718 3.2818 L 15.0718 3.2818 ZM 17.6575 8.9005 C 17.558 8.9005 14.9724 8.3039 12.337 8.6519 C 12.2873 8.5028 12.2376 8.4033 12.1878 8.2542 C 12.0387 7.8564 11.8398 7.5083 11.6906 7.1602 C 14.7238 5.9171 15.9171 4.1768 15.9669 4.1271 C 17.0111 5.4199 17.6575 7.1105 17.6575 8.9005 L 17.6575 8.9005 ZM 18.8011 7.2099 C 18.7017 6.6133 18.5028 6.0663 18.3039 5.5193 C 18.0552 4.9724 17.8066 4.4751 17.4586 3.9779 C 17.1602 3.4807 16.7624 3.0829 16.3646 2.6354 C 15.9668 2.2376 15.5193 1.8398 15.0221 1.5414 C 14.5249 1.1934 14.0276 0.9447 13.4807 0.6961 C 12.9337 0.4475 12.3867 0.2983 11.7901 0.1989 C 11.1934 0.0994 10.5967 0 10 0 C 9.4033 0 8.8066 0.0497 8.2099 0.1989 C 7.6133 0.2983 7.0663 0.4972 6.5193 0.6961 C 5.9724 0.9447 5.4751 1.1934 4.9779 1.5414 C 4.4807 1.8398 4.0829 2.2376 3.6354 2.6354 C 3.2376 3.0331 2.8398 3.4807 2.5414 3.9779 C 2.1934 4.4751 1.9447 4.9724 1.6961 5.5193 C 1.4475 6.0663 1.2983 6.6133 1.1989 7.2099 C 1.0994 7.8066 1 8.4033 1 9 C 1 9.5967 1.0497 10.1934 1.1989 10.7901 C 1.2983 11.3867 1.4972 11.9337 1.6961 12.4807 C 1.9447 13.0276 2.1934 13.5249 2.5414 14.0221 C 2.8398 14.5193 3.2376 14.9171 3.6354 15.3646 C 4.0331 15.7624 4.4807 16.1602 4.9779 16.4586 C 5.4751 16.7569 5.9724 17.0552 6.5193 17.3039 C 7.0663 17.5525 7.6133 17.7017 8.2099 17.8011 C 8.8066 17.9005 9.4033 18 10 18 C 10.5967 18 11.1934 17.9503 11.7901 17.8011 C 12.3867 17.7017 12.9337 17.5028 13.4807 17.3039 C 14.0276 17.0552 14.5249 16.8066 15.0221 16.4586 C 15.5193 16.1602 15.9171 15.7624 16.3646 15.3646 C 16.7624 14.9668 17.1602 14.5193 17.4586 14.0221 C 17.7569 13.5249 18.0552 13.0276 18.3039 12.4807 C 18.5525 11.9337 18.7017 11.3867 18.8011 10.7901 C 18.9005 10.1934 19 9.5967 19 9 C 19 8.4033 18.9005 7.7569 18.8011 7.2099 L 18.8011 7.2099 Z" />
</svg>
