<svg viewBox="0 0 42 39" width= "81px" height="16px" fill="#fff" xmlns="http://www.w3.org/2000/svg" xmlns:xlink="http://www.w3.org/1999/xlink" preserveAspectRatio="xMinYMid meet">
            <path d="M 27.186 0.6207 L 15.5849 0.6207 L 0 38.376 L 11.1633 38.376 L 13.9651 31.3228 L 28.5431 31.3228 L 31.1698 38.376 L 42.4644 38.376 L 27.186 0.6207 L 27.186 0.6207 Z"></path>
            <path d="M 91.9333 0.0415 C 88.4749 0.0415 85.5856 2.5724 85.5856 5.6841 L 85.5856 33.3574 C 85.5856 36.4691 88.4749 39 91.9333 39 C 95.3918 39 98.2811 36.4691 98.2811 33.3574 L 98.2811 5.6841 C 98.2811 2.5724 95.3918 0.0415 91.9333 0.0415 L 91.9333 0.0415 ZM 75.4291 17.5915 L 61.9018 17.5915 L 61.9018 24.6446 L 70.0444 24.6446 C 69.738 26.7191 69.1251 27.8809 68.1182 28.8351 C 66.6298 30.2043 64.5722 30.9511 62.0331 30.9511 C 59.1438 30.9511 56.8673 30.0797 55.1162 28.3786 C 52.796 26.0552 51.614 23.151 51.614 19.7074 C 51.614 18.0479 51.9642 16.4298 52.6209 14.8532 C 54.2844 10.6213 57.3927 8.4638 61.7267 8.4638 C 63.8718 8.4638 65.6667 9.0861 67.2427 10.2064 C 68.3371 11.0777 69.2564 12.3638 70.0882 13.9819 L 79.588 10.2893 C 77.9682 7.2191 76.042 4.8957 73.7656 3.3191 C 70.5698 1.1202 66.7611 0 62.1644 0 C 55.3351 0 50.038 2.0745 46.1856 6.2234 C 42.9022 9.8745 41.1949 14.3553 41.1949 19.6659 C 41.1949 24.5203 42.6396 28.6277 45.4851 32.1128 C 49.2938 36.6766 54.7222 39 61.858 39 C 63.6529 39 65.3602 38.834 66.9362 38.502 C 69.2127 38.0043 71.314 37.216 73.1527 36.0543 C 76.4798 34.0212 78.8438 31.034 80.2884 27.2586 C 81.2078 24.7277 81.6893 21.5329 81.6893 17.55 L 75.4291 17.5915 L 75.4291 17.5915 ZM 181.7216 0.6223 L 170.1204 0.6223 L 154.5356 38.3777 L 165.6989 38.3777 L 168.5007 31.3246 L 183.0787 31.3246 L 185.7053 38.3777 L 197 38.3777 L 181.7216 0.6223 L 181.7216 0.6223 ZM 146.568 0.6223 L 135.8862 0.6223 L 127.4371 20.2053 L 119.2069 0.6223 L 108.744 0.6223 L 101.8271 38.3777 L 112.3776 38.3777 L 115.8798 16.6787 L 125.0293 38.3777 L 129.2758 38.3777 L 139.082 16.7202 L 142.0589 38.3777 L 152.6093 38.3777 L 146.568 0.6223 L 146.568 0.6223 Z"></path>
</svg>